# xmcd
# Copyright (C) 1995-1998 Ti Kan
#
# Track frame offsets:
#       150
#       6147
#       28056
#       53178
#       79337
#       101062
#       129703
#       153054
#       174920
#       200183
#       235550
#       263832
#
# Disc length: 3979 seconds
#
# Revision: 0
# Processed by: cddbd v1.5.2PL0 Copyright (c) Steve Scherf et al.
# Submitted via: CD-Transfer v1.0
#
DISCID=970f890c
DTITLE=Nils Landgren Funk Unit - N. Landgreen
DYEAR=10
DGENRE=
TTITLE0=Kibera Sunrise
TTITLE1=Funk For Life
TTITLE2=Mag Runs The Voodoo Down
TTITLE3=Suguta Road
TTITLE4=Finish What You Started
TTITLE5=Danger Zone
TTITLE6=Matutu
TTITLE7=Dry
TTITLE8=Kibera
TTITLE9=Brown Blues, The
TTITLE10=Never Judge
TTITLE11=Kenya Kane
EXTD=
EXTT0=
EXTT1=
EXTT2=
EXTT3=
EXTT4=
EXTT5=
EXTT6=
EXTT7=
EXTT8=
EXTT9=
EXTT10=
EXTT11=
PLAYORDER=
